PathFileType	4	(X/Y/Z)	./resultDataOpenSim/trcMotMarkerGrf/sub10/qtm-15-07.trc
DataRate	CameraRate	NumFrames	NumMarkers	Units	OrigDataRate	OrigDataStartFrame	OrigNumFrames
250.000000	250.000000	13	24	m	250.000000	326	520
Frame#	Time	L.Toe.Tip			R.Toe.Tip			L.Ankle.Lat			R.Ankle.Lat			L.Ankle.Med			R.Ankle.Med			L.Heel			R.Heel			L.Knee.Lat			R.Knee.Lat			L.Knee.Med			R.Knee.Med			L.Thigh.Upper			R.Thigh.Upper			L.ASIS			R.ASIS			V.Sacral			L.Acromium			R.Acromium			C7			L.Elbow			R.Elbow			L.Wrist.Lat			R.Wrist.Lat
		X1	Y1	Z1	X2	Y2	Z2	X3	Y3	Z3	X4	Y4	Z4	X5	Y5	Z5	X6	Y6	Z6	X7	Y7	Z7	X8	Y8	Z8	X9	Y9	Z9	X10	Y10	Z10	X11	Y11	Z11	X12	Y12	Z12	X13	Y13	Z13	X14	Y14	Z14	X15	Y15	Z15	X16	Y16	Z16	X17	Y17	Z17	X18	Y18	Z18	X19	Y19	Z19	X20	Y20	Z20	X21	Y21	Z21	X22	Y22	Z22	X23	Y23	Z23	X24	Y24	Z24

326	1.3	0.0064832793	-0.0085037634	-0.17672748	0.79530762	0.039796662	-0.15541557	-0.0062376779	0.1267192	-0.23995325	0.6552446	0.053685918	-0.10715605	0.029970598	0.13281682	-0.16419155	0.66927724	0.080881969	-0.19207319	-0.046643573	0.17639937	-0.19430462	0.60068778	0.029918831	-0.14868224	0.27522382	0.38859611	-0.27430975	0.73643695	0.44018709	-0.076197507	0.30748634	0.33949798	-0.16858902	0.71599416	0.46159439	-0.20312923	0.4140159	0.740356	-0.31524725	0.55638253	0.78159403	0.048947794	0.51268568	0.83745654	-0.26939074	0.5930596	0.85424477	-0.048159143	0.36549822	0.89379772	-0.097269775	0.53009527	1.3675559	-0.26156071	0.48821483	1.3778743	-0.012648615	0.45527803	1.3717796	-0.14462874	0.5302007	1.266814	-0.57228795	0.30298965	1.2915645	0.24439982	0.73173715	1.3772902	-0.6851059	0.29540672	1.4947971	0.40128745
327	1.304	0.011494722	-0.0034450847	-0.17768934	0.79534416	0.039774989	-0.15542359	-0.00046594187	0.13170265	-0.24082168	0.65540723	0.053592443	-0.10728013	0.036026717	0.1373665	-0.16514473	0.66951765	0.08067521	-0.1922585	-0.040283879	0.18184453	-0.19510409	0.60067616	0.029994634	-0.14880016	0.28506541	0.3883776	-0.27635182	0.73981481	0.43887236	-0.076545965	0.31741211	0.33899169	-0.17065888	0.72161223	0.4609159	-0.20356507	0.42121818	0.74046692	-0.31532612	0.56113443	0.78126291	0.049609512	0.51936128	0.83774585	-0.26898889	0.5991583	0.8545107	-0.047040582	0.37081528	0.89317998	-0.097964248	0.53605526	1.3679139	-0.26173822	0.4941945	1.3783093	-0.012343769	0.46115706	1.3724373	-0.14458183	0.53560186	1.2655483	-0.5721862	0.31008045	1.2892663	0.24523791	0.73641219	1.3764812	-0.68567178	0.3024008	1.4924958	0.40213301
328	1.308	0.016913063	0.0017160659	-0.17864767	0.79538368	0.039750126	-0.15542109	0.0056084341	0.13673317	-0.241628	0.65557298	0.053503873	-0.10735457	0.042340122	0.14197345	-0.16606732	0.66975269	0.080513509	-0.19238467	-0.033714909	0.18728835	-0.19585805	0.60067744	0.030062637	-0.14887755	0.29502715	0.38824307	-0.27848472	0.74287087	0.43745614	-0.076809502	0.32737855	0.3384222	-0.17273475	0.72705313	0.45993611	-0.20381938	0.42830223	0.74078513	-0.3152412	0.56584962	0.78117315	0.050254188	0.52595598	0.83814398	-0.26861311	0.60514709	0.85493099	-0.045791871	0.37619684	0.89272251	-0.098605931	0.54198185	1.3682989	-0.26190041	0.49997831	1.3787387	-0.012097618	0.4669529	1.3731196	-0.14455546	0.54098232	1.2641806	-0.57206966	0.31720257	1.2869117	0.24607095	0.74107359	1.3755013	-0.68624821	0.30947178	1.4900358	0.40311222
329	1.312	0.02266743	0.0069285552	-0.17963422	0.79542209	0.039719071	-0.15540198	0.011966379	0.1418077	-0.24237705	0.65573771	0.053412741	-0.10737549	0.048913435	0.14662134	-0.16696237	0.66998423	0.080381823	-0.19245226	-0.026919042	0.1927335	-0.1965731	0.60068771	0.030122559	-0.1489172	0.30505879	0.38822415	-0.28063035	0.74569684	0.43601039	-0.076978924	0.33736028	0.3377761	-0.17476205	0.7322768	0.45875379	-0.20397168	0.43526146	0.74128653	-0.31505386	0.57053409	0.78132461	0.050866955	0.53246116	0.83867454	-0.26827048	0.6110182	0.85551441	-0.044420143	0.38164224	0.8924725	-0.099181846	0.5478629	1.3687263	-0.26203782	0.50561867	1.3791948	-0.0118911	0.47266278	1.3738413	-0.14453854	0.54632648	1.2627219	-0.57193204	0.3243283	1.284516	0.24688827	0.74571155	1.3743422	-0.68683016	0.31662812	1.4874225	0.40422724
330	1.316	0.028669065	0.012159775	-0.18066647	0.79545109	0.039685793	-0.15536702	0.018578325	0.14692984	-0.24308734	0.65589131	0.053311624	-0.10735579	0.055741054	0.15129508	-0.16783407	0.67020961	0.080266596	-0.19247256	-0.019876847	0.19818963	-0.19724379	0.60069807	0.030176844	-0.1489294	0.31516332	0.38830508	-0.28275864	0.74839033	0.43459809	-0.077031616	0.34739194	0.33711668	-0.17675134	0.7372491	0.45745622	-0.20405304	0.44211047	0.74192745	-0.31480333	0.57519989	0.78170017	0.051445719	0.53886987	0.83936353	-0.26796871	0.61677764	0.85626518	-0.042945189	0.38714873	0.89246755	-0.099707199	0.55368647	1.36922	-0.26215475	0.51124253	1.3797167	-0.011669315	0.47828097	1.3746091	-0.14452191	0.55162319	1.2611885	-0.57175904	0.33142534	1.2821128	0.24767755	0.75031471	1.3730006	-0.68741425	0.32387449	1.4846649	0.40546893
331	1.32	0.034852664	0.017382992	-0.18176151	0.79546302	0.039657943	-0.15532183	0.025423896	0.15210349	-0.24377689	0.65602311	0.053203605	-0.10731846	0.062820773	0.15597473	-0.16868909	0.67041853	0.080168276	-0.19246264	-0.012586958	0.20365663	-0.19783933	0.60069822	0.030233493	-0.14893175	0.32531625	0.38847505	-0.28483472	0.75099282	0.43324716	-0.076980834	0.35757838	0.33658904	-0.17885323	0.74192185	0.45610582	-0.20404261	0.44888122	0.74266619	-0.31451629	0.57986172	0.78226693	0.05198551	0.54518103	0.84022681	-0.26771658	0.62243397	0.85717693	-0.041406228	0.39270495	0.89272221	-0.10021508	0.55945324	1.3698004	-0.26226321	0.51690784	1.3803178	-0.011407307	0.48380421	1.375418	-0.14449783	0.55686842	1.2595949	-0.57154307	0.33847116	1.2797253	0.24842375	0.75488768	1.3714754	-0.687998	0.33120285	1.4817746	0.40682192
332	1.324	0.041208636	0.022573172	-0.18294372	0.79545651	0.039638688	-0.1552728	0.032490463	0.15732609	-0.24445429	0.65612637	0.053103866	-0.10728403	0.070153017	0.16063399	-0.16953578	0.67060238	0.080095364	-0.19243986	-0.0050662234	0.20911594	-0.19832042	0.60068364	0.030303614	-0.14894417	0.33544021	0.38875896	-0.28680153	0.75349391	0.43195225	-0.076870768	0.36797098	0.33630412	-0.18118708	0.74622803	0.45475361	-0.20390644	0.45560654	0.74347031	-0.31421923	0.58453525	0.78298169	0.052471333	0.55140193	0.84126229	-0.26752168	0.62799332	0.85823356	-0.039850374	0.398285	0.89322072	-0.10073251	0.5651743	1.3704806	-0.26237698	0.52258823	1.380986	-0.011119044	0.48923954	1.3762619	-0.14446024	0.5620588	1.2579551	-0.57130671	0.34548055	1.2773537	0.24911256	0.7594508	1.369762	-0.68857571	0.33860124	1.4787615	0.40827413
333	1.328	0.047764341	0.027710181	-0.18424008	0.79543564	0.039622887	-0.15522464	0.039772311	0.16257898	-0.24512034	0.65620057	0.053025362	-0.10726084	0.07773572	0.16524217	-0.17038234	0.67076343	0.080049918	-0.19241485	0.0026873499	0.21454188	-0.19867889	0.60065725	0.030394061	-0.14897691	0.34549707	0.38917659	-0.28864012	0.7558779	0.43070411	-0.076736279	0.37848139	0.33622262	-0.18365025	0.7501107	0.45344622	-0.20364185	0.46230851	0.74431708	-0.31392657	0.58923914	0.78380573	0.052889214	0.55754502	0.84245517	-0.26738645	0.63346357	0.85941219	-0.038317355	0.40385196	0.89392304	-0.10126571	0.57086182	1.3712642	-0.26250507	0.52824437	1.3817092	-0.010824252	0.49460149	1.3771473	-0.14440764	0.56719165	1.2562799	-0.57109499	0.35249718	1.2749931	0.24973031	0.76402244	1.3678578	-0.68914317	0.34606525	1.4756299	0.40981983
334	1.332	0.054544889	0.032782816	-0.1856714	0.79540512	0.039603019	-0.15517819	0.047271374	0.16782887	-0.24577061	0.65625163	0.052966873	-0.10724295	0.08556505	0.16977363	-0.17123231	0.67091132	0.080024646	-0.19238596	0.010704079	0.21991693	-0.19894176	0.6006235	0.030503322	-0.1490236	0.3555927	0.38968236	-0.29043496	0.75814949	0.42951244	-0.076582958	0.38899948	0.33621379	-0.18603564	0.75354398	0.45223156	-0.20329299	0.46899717	0.7451961	-0.31364347	0.59398986	0.78471567	0.053233771	0.56362251	0.84378876	-0.26730385	0.63885925	0.86069169	-0.036832256	0.4093735	0.89478369	-0.10180276	0.57651508	1.372136	-0.26264604	0.53385867	1.3824859	-0.010532056	0.49990512	1.3780865	-0.14434484	0.57225974	1.2545775	-0.57092759	0.35954615	1.2726504	0.25027019	0.76860096	1.365771	-0.68970587	0.3535981	1.4723856	0.41145606
335	1.336	0.061546754	0.037788321	-0.18724159	0.79536725	0.039578059	-0.15513017	0.054993958	0.17304408	-0.24640318	0.65628909	0.052918217	-0.10721753	0.093637333	0.17421754	-0.17208112	0.67105148	0.080014443	-0.19234065	0.019010623	0.22523422	-0.19914186	0.60058302	0.030625176	-0.14906705	0.36595899	0.39016257	-0.29236314	0.76033762	0.42840204	-0.076398356	0.3995126	0.33619072	-0.18823736	0.7565154	0.45116765	-0.2029269	0.47567598	0.74611399	-0.31337839	0.59879464	0.78569935	0.053507998	0.56964397	0.84525	-0.26725748	0.64419468	0.86205876	-0.035407661	0.41483722	0.89577135	-0.10232344	0.58211643	1.3730663	-0.26279286	0.53942702	1.3833152	-0.010243233	0.50516265	1.3790846	-0.14428216	0.57723416	1.2528655	-0.57074136	0.3666048	1.2703417	0.25074147	0.77316439	1.363518	-0.69027717	0.3612071	1.4690395	0.41317873
336	1.34	0.068741427	0.042727025	-0.18893995	0.79532313	0.039553131	-0.15507599	0.062949057	0.17820919	-0.24703325	0.65632091	0.052872387	-0.10717549	0.10194679	0.1785738	-0.17292259	0.6711823	0.080023197	-0.192266	0.02760862	0.23048954	-0.19930548	0.60053489	0.030754941	-0.14909237	0.37679102	0.39050768	-0.29458668	0.76248244	0.42739488	-0.076169996	0.4100584	0.33614936	-0.19026371	0.75901813	0.45030577	-0.20260214	0.48234393	0.74709197	-0.31314388	0.60365364	0.78674759	0.053722949	0.57561747	0.8468263	-0.26722937	0.64947257	0.86350055	-0.034051185	0.42025476	0.89687399	-0.10280191	0.58764432	1.3740387	-0.26294369	0.54494785	1.3841887	-0.0099548472	0.51037997	1.3801419	-0.14422617	0.58207516	1.2511676	-0.57043078	0.37362386	1.2680766	0.25116232	0.7776899	1.3611096	-0.69086735	0.36890103	1.4656004	0.41498062
337	1.344	0.076105032	0.047595872	-0.19075955	0.79527692	0.039531368	-0.15501343	0.071145724	0.18332688	-0.24769971	0.65635051	0.052829632	-0.10711603	0.11048254	0.18283998	-0.17376019	0.67130397	0.080055959	-0.19216065	0.036477907	0.2356716	-0.19945812	0.6004828	0.030889959	-0.14909541	0.38807726	0.39070284	-0.29711964	0.76461117	0.42649732	-0.07588946	0.42065868	0.33613483	-0.1921681	0.76108454	0.44965445	-0.2023341	0.48899286	0.74815258	-0.31295373	0.60856311	0.78785318	0.053893721	0.58155291	0.84849953	-0.26720744	0.65468674	0.86499675	-0.032768074	0.42566245	0.89808403	-0.10320158	0.59308419	1.3750611	-0.2631058	0.55042458	1.3850937	-0.0096619467	0.51555583	1.3812616	-0.14417229	0.58677552	1.24949	-0.56998572	0.38057047	1.2658504	0.25154281	0.78217245	1.3585422	-0.69147703	0.37668365	1.4620676	0.41684957
338	1.348	0.083638282	0.052384977	-0.19270138	0.79523763	0.039510914	-0.15494343	0.079582113	0.18840017	-0.24844521	0.65637932	0.0527926	-0.10704359	0.11923042	0.18700734	-0.17460541	0.67142384	0.080110517	-0.19203601	0.045588825	0.24075954	-0.19962252	0.60043623	0.031026451	-0.14908283	0.39959721	0.39084741	-0.29980178	0.76673007	0.42569876	-0.075550718	0.43132101	0.33620561	-0.1940118	0.76281357	0.44916976	-0.20207146	0.49560954	0.74930886	-0.31281702	0.61351375	0.78901166	0.054033371	0.58746357	0.85024685	-0.26718393	0.6598343	0.86652579	-0.031561891	0.43111386	0.8993813	-0.103483	0.59842856	1.376145	-0.26328981	0.55586726	1.3860225	-0.0093583963	0.52068903	1.3824466	-0.14411453	0.5913579	1.2478235	-0.569493	0.38744837	1.2636513	0.25188184	0.78662255	1.3558071	-0.69210148	0.38454547	1.4584405	0.4187695
